<svg id="Layer_1" data-name="Layer 1" xmlns="http://www.w3.org/2000/svg" viewBox="0 0 589.69 106.83"><path d="M279.52,472.34a38.1,38.1,0,1,1-57.47,0,45.63,45.63,0,1,0,57.47,0Z" transform="translate(-205.16 -446.59)"/><path d="M250.78,525.79a31.91,31.91,0,0,0,26.84-49.15,31.18,31.18,0,0,0-3.05-4,32.29,32.29,0,0,0-7.67-6.29L264,469.3a27.14,27.14,0,0,1,4.91,3.35H256.78v-9.36h-.13v9.36h-.54v-9.36h-.66v9.36h-.54v-9.36h-.13v9.36h-3V460.22h1.44l2.23-6.43a8,8,0,0,1-4.66-7.2h0a8,8,0,0,1-4.66,7.2l2.23,6.43h1.43v12.43h-3v-9.36h-.14v9.36h-.53v-9.36h-.67v9.36h-.53v-9.36h-.13v9.36H232.7a27.14,27.14,0,0,1,4.91-3.35l-2.94-2.94a32.29,32.29,0,0,0-7.67,6.29,31.18,31.18,0,0,0-3.05,4,31.91,31.91,0,0,0,26.83,49.15Zm6-49.15h15.93a27.95,27.95,0,0,1,3.78,28.11,28,28,0,0,1-14.85,14.85,27.16,27.16,0,0,1-4.86,1.54Zm-.67,0h.54v44.53l-.54.11Zm-1.2,0h.54V521.4l-.54.09Zm-3.85,45.14h-.55V476.64h.55Zm3.72-45.14V521.5a29.85,29.85,0,0,1-3,.27V476.64Zm-5.38-19.82a1.39,1.39,0,1,1,1.66,1.35v14.48h-.55V458.17A1.37,1.37,0,0,1,249.4,456.82Zm-2.61,19.82h3v45.13a29.91,29.91,0,0,1-3-.27Zm-.67,0h.53v44.85l-.53-.09Zm-1.2,0h.53v44.64l-.53-.11ZM225.08,483a27.92,27.92,0,0,1,3.77-6.39h15.94v44.5a27.16,27.16,0,0,1-4.86-1.54A27.94,27.94,0,0,1,225.08,483Z" transform="translate(-205.16 -446.59)"/><path d="M351.74,485.05l-.21,27.73a5.49,5.49,0,0,1-1.06,3,2.9,2.9,0,0,1-2.28,1.59v.9H317.07l11-28.68a13.11,13.11,0,0,1,12.25-8.43h7.84v.95a2.67,2.67,0,0,1,1.28.32A7.56,7.56,0,0,1,351.74,485.05Zm7.37-3.23L376,506.68l-.26-20a5.49,5.49,0,0,0-1.06-3c-.71-1.06-1.45-1.59-2.23-1.59v-.95H357.73A1.66,1.66,0,0,1,359.11,481.82Zm2.23,16.6q-5.89-8.18-7.69-10.93l.32,25.29a5.51,5.51,0,0,0,1,3,2.84,2.84,0,0,0,2.25,1.59v.9H376a48.44,48.44,0,0,1-6.15-7.58Q367.22,506.58,361.34,498.42Zm25.18-14.69c-.71-1.1-1.46-1.65-2.28-1.65v-.95h-2.81v.95a2.9,2.9,0,0,0-2.28,1.59,5.49,5.49,0,0,0-1.06,3l-.26,31.6h6.41v-.9c.82,0,1.57-.55,2.28-1.64a5.66,5.66,0,0,0,1.06-3V486.75A5.63,5.63,0,0,0,386.52,483.73Zm29.06,15.93a18.24,18.24,0,0,1,5.67-13.49,18.67,18.67,0,0,1,8.83-5H410a1,1,0,0,1,.8.42,1.66,1.66,0,0,1,.31,1v10h-.95a8.33,8.33,0,0,0-2.57-6.07q-2.58-2.56-8-2.57a4.94,4.94,0,0,0-3.63,1.38,4.5,4.5,0,0,0-1.41,3.34v10.28a16.39,16.39,0,0,0,6.68-1.24c1.88-.83,2.81-1.87,2.81-3.1h1v10.18h-1c0-1.17-.94-2.18-2.83-3a16.35,16.35,0,0,0-6.66-1.27V511a4.07,4.07,0,0,0,1.33,3.21,5.32,5.32,0,0,0,3.71,1.19c3.71,0,6.4-.78,8.06-2.36a8.17,8.17,0,0,0,2.49-6.22h.95v10.23c0,.77-.37,1.16-1.11,1.16h20.07a18.63,18.63,0,0,1-8.83-5.06A18.34,18.34,0,0,1,415.58,499.66Zm28.13,11.66a19.86,19.86,0,0,0,2.36-11.66A22.11,22.11,0,0,0,442,488.05q-3.56-4.83-8.05-4.83T426.69,488a20,20,0,0,0-2.42,11.67,21.43,21.43,0,0,0,4,11.64q3.57,4.84,8,4.85T443.71,511.32Zm18.48-28.18a1.7,1.7,0,0,0-1.81-1.06v-.95H439.57a18.67,18.67,0,0,1,8.83,5,18.92,18.92,0,0,1,0,27,18.63,18.63,0,0,1-8.83,5.06h17.84v-.9a2.66,2.66,0,0,0,2.2-1.32,6.54,6.54,0,0,0,1.09-3.24l2.38-26.88Zm2.43,7.48-1.17,22.16a7.32,7.32,0,0,0,.46,3.58,2.13,2.13,0,0,0,2,1v.9h10.5a24.83,24.83,0,0,1-4-7.79Zm5.2-8.48,9.91,26.66,7.91-27.67H468.33A1.39,1.39,0,0,1,469.82,482.14Zm18.61,3.55-9.28,32.55h9.44v-.9a2.49,2.49,0,0,0,2.09-1.35,4.19,4.19,0,0,0,.72-2.83ZM515,482.14v-1H498.77v.95q-2.59,0-2.28,4.56l2.81,26.14a6.86,6.86,0,0,0,1.14,3.05,2.72,2.72,0,0,0,2.2,1.51v.9h.53v-.9a3.64,3.64,0,0,0,2.54-1.61,8.39,8.39,0,0,0,1.81-3.16l10.18-27.78C516.92,483,516,482.14,515,482.14Zm10.08,24.54-6-17.49a.64.64,0,0,0-.3-.51.45.45,0,0,0-.47,0,.64.64,0,0,0-.29.42l-5.84,17.55Zm.74,2.34H511.6l-1.22,3.82a4,4,0,0,0,.24,3,2.23,2.23,0,0,0,2,1.48v.9h12.09v-.9a2.18,2.18,0,0,0,2-1.43,4.17,4.17,0,0,0,.26-3Zm29.06,9.22a18.92,18.92,0,0,1-3-1.08,24.43,24.43,0,0,1-6.23-4.19,21.6,21.6,0,0,1-4.64-6.31,17.2,17.2,0,0,1-1.83-7.64,20.14,20.14,0,0,1,1.73-8.61,14.11,14.11,0,0,1,4.66-5.75,21.13,21.13,0,0,1,6.37-3.05c.65-.19,1.31-.35,2-.48H521a4.39,4.39,0,0,1,4.61,3.13L535,512.52a10.82,10.82,0,0,0,1.85,3.18,3.57,3.57,0,0,0,2.55,1.64v.9Z" transform="translate(-205.16 -446.59)"/><path d="M559.85,499.71h13.31v.9c-1.06,0-1.59,1.14-1.59,3.4v11.77c-.25.07-.88.31-1.88.71s-1.93.76-2.76,1a25.52,25.52,0,0,1-3.58.82,28.16,28.16,0,0,1-4.82.4,15.63,15.63,0,0,1-6.61-1.59,24.26,24.26,0,0,1-6.23-4.19,21.43,21.43,0,0,1-4.64-6.31,17.06,17.06,0,0,1-1.82-7.64,20.11,20.11,0,0,1,1.72-8.61,14.21,14.21,0,0,1,4.66-5.76,21.35,21.35,0,0,1,6.37-3,26.25,26.25,0,0,1,7.34-1A14.64,14.64,0,0,1,568,483q3.29,2.37,3.34,5.28a4.17,4.17,0,0,1-1.09,2.89,4,4,0,0,1-3,1.25,10.06,10.06,0,0,1-1.24-.08,5.9,5.9,0,0,1-.93-.19l-.32-.11a9.37,9.37,0,0,0-.29-1.88,20.92,20.92,0,0,0-.9-2.83,7.58,7.58,0,0,0-1.83-2.76,3.94,3.94,0,0,0-2.81-1.17q-4.35,0-7.93,3.95c-2.38,2.64-3.58,6.37-3.58,11.22a18.53,18.53,0,0,0,1.36,7.26,13.87,13.87,0,0,0,3.42,5.09,15.92,15.92,0,0,0,4.24,2.81,10.14,10.14,0,0,0,4.08,1,15.88,15.88,0,0,0,3.92-.53v-8.91a4.28,4.28,0,0,0-1.61-3.16,4.71,4.71,0,0,0-3-1.46Z" transform="translate(-205.16 -446.59)"/><path d="M597.71,484.26l9.38,28.26A11.1,11.1,0,0,0,609,515.7a3.52,3.52,0,0,0,2.54,1.64v.9H596.81v-.9a2.16,2.16,0,0,0,2-1.43,4.12,4.12,0,0,0,.27-3L597.87,509H583.66l-1.22,3.82a4,4,0,0,0,.24,3,2.21,2.21,0,0,0,2,1.48v.9h-9.49v-.9a3.71,3.71,0,0,0,2.54-1.61,8.35,8.35,0,0,0,1.8-3.16l10.19-27.78c-.78-1.77-1.68-2.65-2.71-2.65v-1h6.05A4.39,4.39,0,0,1,597.71,484.26Zm-13.47,22.43h12.89l-6-17.5a.63.63,0,0,0-.29-.51.42.42,0,0,0-.47,0,.69.69,0,0,0-.3.43Z" transform="translate(-205.16 -446.59)"/><path d="M639.49,508.12h1v10.12H613.56v-.9a2.9,2.9,0,0,0,2.28-1.59,5.41,5.41,0,0,0,1.06-3V486.64a5.41,5.41,0,0,0-1.06-3,2.9,2.9,0,0,0-2.28-1.59v-.95h13.68v.95c-.78,0-1.52.53-2.23,1.59a5.49,5.49,0,0,0-1.06,3v23c0,2.06.51,3.53,1.52,4.43a5.6,5.6,0,0,0,3.89,1.35,11.62,11.62,0,0,0,7.35-2.17A6.39,6.39,0,0,0,639.49,508.12Z" transform="translate(-205.16 -446.59)"/><path d="M670.24,508.12h1v10.12H644.31v-.9a2.88,2.88,0,0,0,2.28-1.59,5.41,5.41,0,0,0,1.06-3V486.64a5.41,5.41,0,0,0-1.06-3,2.88,2.88,0,0,0-2.28-1.59v-.95H658v.95a2.87,2.87,0,0,0-2.22,1.59,5.41,5.41,0,0,0-1.06,3v23c0,2.06.5,3.53,1.51,4.43a5.62,5.62,0,0,0,3.89,1.35,11.62,11.62,0,0,0,7.35-2.17A6.39,6.39,0,0,0,670.24,508.12Z" transform="translate(-205.16 -446.59)"/><path d="M689.59,483.94a5,5,0,0,0-3.63,1.38,4.52,4.52,0,0,0-1.4,3.34v10.28a16.42,16.42,0,0,0,6.68-1.24c1.87-.83,2.81-1.87,2.81-3.1h1v10.18h-1c0-1.17-.95-2.18-2.84-3a16.27,16.27,0,0,0-6.65-1.27V511a4.1,4.1,0,0,0,1.32,3.21,5.34,5.34,0,0,0,3.71,1.19c3.72,0,6.4-.78,8.06-2.35a8.17,8.17,0,0,0,2.5-6.24h1v10.24c0,.78-.37,1.16-1.11,1.16H674.22v-.9c.81,0,1.57-.54,2.28-1.64a5.75,5.75,0,0,0,1.06-3V486.75a5.72,5.72,0,0,0-1.06-3q-1.07-1.65-2.28-1.65v-.95H700a1,1,0,0,1,.79.42,1.67,1.67,0,0,1,.32,1v10h-1a8.3,8.3,0,0,0-2.58-6.07Q695,483.95,689.59,483.94Z" transform="translate(-205.16 -446.59)"/><path d="M725.49,500.48a26.31,26.31,0,0,0,2,4.35,56.93,56.93,0,0,0,3.48,5.57,22.48,22.48,0,0,0,4.74,5,8.66,8.66,0,0,0,5.2,2.07v.85h-1.22a48.06,48.06,0,0,1-7.66-.48,12.21,12.21,0,0,1-5.15-2.12,14.36,14.36,0,0,1-3.84-4.11,58.52,58.52,0,0,1-3.61-7.18,23.82,23.82,0,0,1-4.34,2.17v6.15a5.41,5.41,0,0,0,1.06,3q1,1.59,2.22,1.59v.9H704.65v-.9a2.88,2.88,0,0,0,2.28-1.59,5.41,5.41,0,0,0,1.06-3V486.59a5.41,5.41,0,0,0-1.06-3,2.88,2.88,0,0,0-2.28-1.59v-.95h18.77a15.19,15.19,0,0,1,3.08.26,9.26,9.26,0,0,1,5.11,2.55,7.08,7.08,0,0,1,2,5.3q0,2.81-2.63,6.12A22.72,22.72,0,0,1,725.49,500.48Zm-10.44-13.63v16.76a31.5,31.5,0,0,0,7.18-7.05,12.48,12.48,0,0,0,2.62-7.16,6.18,6.18,0,0,0-1.45-4.08,4.17,4.17,0,0,0-3.21-1.75H718a2.65,2.65,0,0,0-2.09,1A3.38,3.38,0,0,0,715.05,486.85Z" transform="translate(-205.16 -446.59)"/><path d="M756.51,481.13v.95a2.88,2.88,0,0,0-2.31,1.54,5.4,5.4,0,0,0-1,3v26.14a5.34,5.34,0,0,0,1.06,3,2.91,2.91,0,0,0,2.28,1.56v.9H742.78v-.9a2.91,2.91,0,0,0,2.28-1.56,5.42,5.42,0,0,0,1.06-3V486.64a5.49,5.49,0,0,0-1.06-3,2.9,2.9,0,0,0-2.28-1.59v-.95Z" transform="translate(-205.16 -446.59)"/><path d="M781.06,484.26l9.38,28.26a10.87,10.87,0,0,0,1.86,3.18,3.52,3.52,0,0,0,2.54,1.64v.9H780.16v-.9a2.16,2.16,0,0,0,2-1.43,4.12,4.12,0,0,0,.27-3L781.22,509H767l-1.22,3.82a4,4,0,0,0,.24,3,2.21,2.21,0,0,0,2,1.48v.9h-9.49v-.9a3.71,3.71,0,0,0,2.54-1.61,8.35,8.35,0,0,0,1.8-3.16l10.18-27.78c-.77-1.77-1.68-2.65-2.7-2.65v-1h6A4.4,4.4,0,0,1,781.06,484.26Zm-13.47,22.43h12.88l-6-17.5a.63.63,0,0,0-.29-.51.44.44,0,0,0-.48,0,.67.67,0,0,0-.29.43Z" transform="translate(-205.16 -446.59)"/></svg>