<svg id="Layer_1" data-name="Layer 1" xmlns="http://www.w3.org/2000/svg" viewBox="0 0 4152.45 331.34"><defs><style>.cls-1{fill:#1d2835;}</style></defs><path class="cls-1" d="M-1274.53,373.17l-1.85,241q0,12-9.21,25.83c-6.13,9.21-12.75,13.8-19.8,13.8v7.85h-270.45l95.3-249.32a114,114,0,0,1,106.46-73.27h68.21v8.29a22.64,22.64,0,0,1,11.06,2.77Q-1286.06,354.75-1274.53,373.17Zm64.06-28.13,146.55,216.12-2.3-174.19q0-12-9.21-25.79t-19.36-13.84v-8.29h-127.67A14.43,14.43,0,0,1-1210.47,345Zm19.36,144.25q-51.18-70.95-66.84-95l2.78,219.82q0,12,9,25.83t19.6,13.8v7.85h163.12a418.35,418.35,0,0,1-53.44-65.91Q-1140,560.27-1191.11,489.29Zm218.89-127.67c-6.17-9.52-12.74-14.28-19.83-14.28v-8.29h-24.43v8.29q-10.59,0-19.8,13.84t-9.21,25.79l-2.3,274.67H-992v-7.85c7.09,0,13.66-4.76,19.83-14.28s9.21-18.26,9.21-26.24V387.9Q-963,375.93-972.22,361.62Zm252.53,138.5q0-68.7,49.3-117.29,33.81-33.3,76.7-43.78h-174.4a8.33,8.33,0,0,1,6.92,3.7,14.13,14.13,0,0,1,2.77,8.73v87.11h-8.28q0-30.4-22.37-52.75t-69.34-22.37q-19.36,0-31.58,12a39.13,39.13,0,0,0-12.2,29v89.4q33.61,0,58.07-10.82t24.42-27h8.29v88.48h-8.29q0-15.21-24.66-26.27t-57.83-11.07V599c0,11.68,3.84,21,11.51,27.88s18.43,10.38,32.27,10.38q48.36,0,70-20.52t21.69-54.12h8.28V651.5c0,6.74-3.21,10.14-9.69,10.14h174.4q-42.91-10.54-76.7-44Q-719.66,568.8-719.69,500.12ZM-475.2,601.48q24.61-41.93,20.48-101.36-4.62-59-35.49-100.92t-70-42q-38.29,0-62.93,41.48t-21,101.4q3.71,59,34.81,101.16t69.81,42.17Q-499.89,643.45-475.2,601.48Zm160.59-244.93q-3.24-9.19-15.69-9.21v-8.29H-511.14q42.92,10.49,76.7,43.78,49.33,48.6,49.33,117.29t-49.33,117.5q-33.81,33.5-76.7,44h155.05v-7.85q11,0,19.11-11.51t9.46-28.12l20.72-233.63Zm21.17,65-10.14,192.62c-.62,15.07.72,25.45,3.94,31.1s9.15,8.53,17.74,8.53v7.85h91.23q-17.94-20.76-34.57-67.76Zm45.18-73.72,86.16,231.77,68.68-240.54H-261.17C-254.42,339.05-250.11,342-248.26,347.82ZM-86.5,378.68l-80.64,283h82v-7.85c7.06,0,13.12-3.9,18.19-11.75s7.16-16,6.23-24.63Zm230.85-30.86v-8.77H3.35v8.29q-22.6,0-19.8,39.63L8,614.16c.89,8.94,4.21,17.74,9.9,26.51S29.94,653.79,37,653.79v7.85h4.59v-7.85q10.19,0,22.13-14T79.4,612.34l88.48-241.5Q157.71,347.82,144.35,347.82Zm87.56,213.34L179.84,409.1c-.31-2.16-1.13-3.6-2.54-4.38a3.72,3.72,0,0,0-4.14.24,5.7,5.7,0,0,0-2.54,3.66L119.93,561.16Zm6.47,20.28H114.86l-10.59,33.2a34.6,34.6,0,0,0,2.09,26.27c4.15,8.6,10,12.88,17.74,12.88v7.85H229.17v-7.85q11.51,0,17.5-12.43a35.78,35.78,0,0,0,2.3-25.8ZM491,661.64a163.23,163.23,0,0,1-25.62-9.46,209.56,209.56,0,0,1-54.16-36.41Q386.77,593.21,370.85,561T355,494.57q0-42.85,15-74.88t40.56-50a183.62,183.62,0,0,1,55.33-26.52c5.65-1.61,11.4-3,17.3-4.14H196.9q30.89,0,40.08,27.2l81.6,245.61q4.56,13.36,16.1,27.65c7.67,9.52,15.07,14.28,22.12,14.28v7.85Z" transform="translate(1575.84 -334.67)"/><path class="cls-1" d="M534.23,500.57H649.89v7.84q-13.82,0-13.82,29.49V640.21q-3.23.91-16.36,6.22t-24,9q-10.85,3.69-31.11,7.15A249.71,249.71,0,0,1,522.7,666q-27.65,0-57.37-13.82a209.34,209.34,0,0,1-54.15-36.41q-24.43-22.57-40.32-54.84T355,494.58q0-42.85,15-74.88t40.55-50a183.73,183.73,0,0,1,55.3-26.49,230.74,230.74,0,0,1,63.83-8.53q47,0,75.57,20.51t29,45.85a36,36,0,0,1-9.45,25.12q-9.45,10.37-26,10.83a82,82,0,0,1-10.83-.7,44.35,44.35,0,0,1-8.06-1.61l-2.77-.92q0-5.52-2.53-16.36a193.63,193.63,0,0,0-7.84-24.65,64.88,64.88,0,0,0-15.9-24q-10.6-10.12-24.42-10.14-37.78,0-68.89,34.34t-31.11,97.46q0,35,11.75,63.14t29.72,44.24q18,16.13,36.87,24.42t35.49,8.3a137.53,137.53,0,0,0,34.1-4.61V548.5q0-14.75-14.06-27.42t-26-12.67Z" transform="translate(1575.84 -334.67)"/><path class="cls-1" d="M863.26,366.24l81.56,245.62q4.6,13.38,16.13,27.66t22.12,14.28v7.83H855.42V653.8q11.52,0,17.51-12.44a35.81,35.81,0,0,0,2.31-25.81l-10.6-34.1H741.14l-10.6,33.18a34.73,34.73,0,0,0,2.07,26.27q6.23,12.9,17.74,12.9v7.83H667.86V653.8q10.14,0,22.12-14t15.67-27.42l88.48-241.48q-10.14-23-23.5-23v-8.76h52.53Q854,339.05,863.26,366.24ZM746.2,561.17h112L806.11,409.1q-.47-3.23-2.53-4.38a3.75,3.75,0,0,0-4.15.23,5.61,5.61,0,0,0-2.53,3.69Z" transform="translate(1575.84 -334.67)"/><path class="cls-1" d="M1226.39,573.62h8.29v88H1001V653.8q10.59,0,19.82-13.83t9.21-25.8V387q0-12-9.21-25.81T1001,347.35v-8.3h118.89v8.3q-10.14,0-19.35,13.82T1091.36,387V587q0,26.73,13.14,38.48t33.87,11.75q39.63,0,63.82-18.89T1226.39,573.62Z" transform="translate(1575.84 -334.67)"/><path class="cls-1" d="M1493.66,573.62h8.3v88H1268.31V653.8q10.61,0,19.82-13.83t9.22-25.8V387q0-12-9.22-25.81t-19.82-13.82v-8.3h118.9v8.3q-10.14,0-19.35,13.82T1358.64,387V587q0,26.73,13.13,38.48t33.87,11.75q39.63,0,63.83-18.89T1493.66,573.62Z" transform="translate(1575.84 -334.67)"/><path class="cls-1" d="M1661.86,363.48q-19.35,0-31.57,12a39.18,39.18,0,0,0-12.21,29v89.4q33.64,0,58.07-10.83t24.42-27h8.3v88.48h-8.3q0-15.2-24.65-26.26t-57.84-11.06V599q0,17.52,11.52,27.88t32.26,10.37q48.39,0,70.05-20.5t21.66-54.15h8.29V651.5q0,10.14-9.67,10.13h-224V653.8q10.59,0,19.82-14.28t9.21-26.27V387.9q0-12-9.21-26.27t-19.82-14.28v-8.3h224a8.34,8.34,0,0,1,6.91,3.69,14.2,14.2,0,0,1,2.76,8.75v87.1h-8.29q0-30.4-22.35-52.76T1661.86,363.48Z" transform="translate(1575.84 -334.67)"/><path class="cls-1" d="M1973.85,507.25Q1978.44,522,1990.9,545a492.51,492.51,0,0,0,30.18,48.39,194.1,194.1,0,0,0,41.25,43.32q23.49,18,45.16,18v7.38h-10.6q-41.94,0-66.59-4.15a106.37,106.37,0,0,1-44.7-18.44,123.56,123.56,0,0,1-33.41-35.71q-13.38-21.43-31.34-62.44-27.64,16.14-37.79,18.89v53.46q0,12,9.22,25.8t19.35,13.83v7.83H1792.74v-7.83q10.59,0,19.81-13.83t9.22-25.8V386.52q0-12-9.22-25.81t-19.81-13.82v-8.3h163.13a132.85,132.85,0,0,1,26.73,2.31q26.73,4.61,44.47,22.12t17.74,46.08q0,24.42-22.81,53.23T1973.85,507.25Zm-90.79-118.43V534.44q39.63-29,62.44-61.29t22.82-62.21a53.73,53.73,0,0,0-12.68-35.48q-12.67-15.21-27.88-15.21h-18.89q-10.61,0-18.21,8.76A29.43,29.43,0,0,0,1883.06,388.82Z" transform="translate(1575.84 -334.67)"/><path class="cls-1" d="M2243.43,339.05v8.3q-11.05,0-20,13.36t-9,26.27V614.17q0,12.44,9.21,26t19.82,13.59v7.83H2124.07V653.8q10.6,0,19.82-13.59t9.22-26V387q0-12-9.22-25.81t-19.82-13.82v-8.3Z" transform="translate(1575.84 -334.67)"/><path class="cls-1" d="M2456.79,366.24l81.57,245.62q4.6,13.38,16.13,27.66t22.12,14.28v7.83H2449V653.8q11.52,0,17.51-12.44a35.81,35.81,0,0,0,2.31-25.81l-10.6-34.1H2334.67l-10.6,33.18a34.78,34.78,0,0,0,2.08,26.27q6.22,12.9,17.74,12.9v7.83H2261.4V653.8q10.13,0,22.12-14t15.67-27.42l88.48-241.48q-10.14-23-23.51-23v-8.76h52.54Q2447.57,339.05,2456.79,366.24ZM2339.74,561.17h112L2399.65,409.1c-.31-2.15-1.15-3.61-2.54-4.38a3.73,3.73,0,0,0-4.14.23,5.62,5.62,0,0,0-2.54,3.69Z" transform="translate(1575.84 -334.67)"/></svg>