<svg id="Layer_1" data-name="Layer 1" xmlns="http://www.w3.org/2000/svg" viewBox="0 0 300.77 24"><defs><style>.cls-1{fill:#fff;}</style></defs><path class="cls-1" d="M-1652.23,23.77l-.14,17.46a3.45,3.45,0,0,1-.66,1.87,1.85,1.85,0,0,1-1.44,1v.56h-19.59l6.91-18a8.25,8.25,0,0,1,7.71-5.31h4.94v.6a1.69,1.69,0,0,1,.8.2A4.76,4.76,0,0,1-1652.23,23.77Zm4.64-2L-1637,37.39l-.16-12.62a3.47,3.47,0,0,0-.67-1.87c-.45-.67-.91-1-1.4-1v-.6h-9.25A1.06,1.06,0,0,1-1647.59,21.73Zm1.4,10.45q-3.7-5.14-4.84-6.88l.2,15.93a3.52,3.52,0,0,0,.65,1.87,1.8,1.8,0,0,0,1.42,1v.56h11.81a30.2,30.2,0,0,1-3.87-4.77Q-1642.48,37.33-1646.19,32.18Zm15.85-9.25a1.8,1.8,0,0,0-1.43-1v-.6h-1.77v.6a1.83,1.83,0,0,0-1.44,1,3.45,3.45,0,0,0-.66,1.87l-.17,19.89h4V44.1c.51,0,1-.35,1.43-1a3.53,3.53,0,0,0,.67-1.9V24.84A3.56,3.56,0,0,0-1630.34,22.93Zm18.3,10a11.51,11.51,0,0,1,3.57-8.5,11.74,11.74,0,0,1,5.55-3.17h-12.63a.6.6,0,0,1,.5.27,1,1,0,0,1,.2.63v6.31h-.6a5.22,5.22,0,0,0-1.62-3.82q-1.62-1.62-5-1.62a3.12,3.12,0,0,0-2.29.87,2.82,2.82,0,0,0-.88,2.1v6.47a10.36,10.36,0,0,0,4.2-.78q1.77-.78,1.77-1.95h.6v6.41h-.6c0-.74-.59-1.37-1.78-1.91a10.24,10.24,0,0,0-4.19-.8v6.64a2.59,2.59,0,0,0,.83,2,3.39,3.39,0,0,0,2.34.76c2.33,0,4-.5,5.07-1.49a5.14,5.14,0,0,0,1.57-3.92h.6v6.44c0,.49-.23.73-.7.73h12.63a11.76,11.76,0,0,1-5.55-3.18A11.56,11.56,0,0,1-1612,33Zm17.7,7.34a12.48,12.48,0,0,0,1.49-7.34,13.84,13.84,0,0,0-2.57-7.31q-2.24-3-5.07-3t-4.56,3a12.57,12.57,0,0,0-1.52,7.35,13.48,13.48,0,0,0,2.52,7.32q2.25,3.06,5.06,3.06C-1597.08,43.35-1595.53,42.33-1594.34,40.31Zm11.64-17.74a1.06,1.06,0,0,0-1.14-.67v-.6h-13.1a11.81,11.81,0,0,1,5.56,3.17,11.51,11.51,0,0,1,3.57,8.5,11.56,11.56,0,0,1-3.57,8.51,11.83,11.83,0,0,1-5.56,3.18h11.23V44.1a1.68,1.68,0,0,0,1.39-.84,4.05,4.05,0,0,0,.68-2l1.5-16.93Zm1.53,4.7-.73,14a4.6,4.6,0,0,0,.28,2.25,1.35,1.35,0,0,0,1.29.62v.56h6.6a15.76,15.76,0,0,1-2.5-4.9Zm3.27-5.34,6.24,16.79,5-17.42h-12.15A.87.87,0,0,1-1577.9,21.93Zm11.72,2.24L-1572,44.66h5.94V44.1a1.6,1.6,0,0,0,1.32-.85,2.78,2.78,0,0,0,.45-1.79Zm16.72-2.24V21.3h-10.21v.6c-1.09,0-1.57,1-1.44,2.87l1.77,16.46a4.45,4.45,0,0,0,.72,1.92,1.71,1.71,0,0,0,1.38,1v.56h.34V44.1a2.32,2.32,0,0,0,1.6-1,5.31,5.31,0,0,0,1.14-2l6.41-17.49C-1548.25,22.49-1548.81,21.93-1549.46,21.93Zm6.34,15.46-3.77-11a.38.38,0,0,0-.18-.31.27.27,0,0,0-.3,0,.47.47,0,0,0-.19.27l-3.67,11.05Zm.47,1.47h-8.95l-.76,2.4a2.51,2.51,0,0,0,.15,1.9,1.4,1.4,0,0,0,1.28.94v.56h7.61V44.1a1.37,1.37,0,0,0,1.27-.9,2.58,2.58,0,0,0,.17-1.87Zm18.3,5.8a11.36,11.36,0,0,1-1.86-.68,15.35,15.35,0,0,1-3.92-2.64,13.41,13.41,0,0,1-2.92-4,10.73,10.73,0,0,1-1.15-4.81,12.72,12.72,0,0,1,1.08-5.42,8.86,8.86,0,0,1,2.94-3.62,13.19,13.19,0,0,1,4-1.92,12.85,12.85,0,0,1,1.26-.3h-20.73a2.76,2.76,0,0,1,2.9,2l5.91,17.79a6.69,6.69,0,0,0,1.17,2,2.23,2.23,0,0,0,1.6,1v.56Z" transform="translate(1674.06 -20.98)"/><path class="cls-1" d="M-1521.22,33h8.38v.57c-.67,0-1,.71-1,2.13v7.41c-.16,0-.55.2-1.19.45s-1.21.48-1.73.65a15.9,15.9,0,0,1-2.26.52,17.7,17.7,0,0,1-3,.25,9.81,9.81,0,0,1-4.16-1,15.18,15.18,0,0,1-3.92-2.64,13.41,13.41,0,0,1-2.92-4,10.73,10.73,0,0,1-1.15-4.81,12.76,12.76,0,0,1,1.08-5.42,8.86,8.86,0,0,1,2.94-3.62,13.19,13.19,0,0,1,4-1.92,16.82,16.82,0,0,1,4.63-.62,9.18,9.18,0,0,1,5.47,1.49,4.23,4.23,0,0,1,2.1,3.32,2.59,2.59,0,0,1-.68,1.82,2.53,2.53,0,0,1-1.89.78,5,5,0,0,1-.78-.05,2.73,2.73,0,0,1-.59-.12l-.2-.06a5.89,5.89,0,0,0-.18-1.19,12.8,12.8,0,0,0-.57-1.78,4.65,4.65,0,0,0-1.15-1.74,2.47,2.47,0,0,0-1.77-.73,6.67,6.67,0,0,0-5,2.48c-1.5,1.66-2.25,4-2.25,7.06a11.72,11.72,0,0,0,.85,4.58A8.94,8.94,0,0,0-1526,40a10.14,10.14,0,0,0,2.67,1.77,6.46,6.46,0,0,0,2.57.6,10,10,0,0,0,2.47-.33V36.47a2.71,2.71,0,0,0-1-2,3,3,0,0,0-1.89-.91Z" transform="translate(1674.06 -20.98)"/><path class="cls-1" d="M-1497.39,23.27l5.91,17.79a6.57,6.57,0,0,0,1.17,2,2.25,2.25,0,0,0,1.6,1v.56h-9.24V44.1a1.37,1.37,0,0,0,1.26-.9,2.58,2.58,0,0,0,.17-1.87l-.77-2.47h-8.94l-.77,2.4a2.51,2.51,0,0,0,.15,1.9,1.4,1.4,0,0,0,1.29.94v.56h-6V44.1a2.32,2.32,0,0,0,1.6-1,5.31,5.31,0,0,0,1.14-2l6.41-17.49c-.49-1.11-1.06-1.67-1.71-1.67V21.3h3.81A2.76,2.76,0,0,1-1497.39,23.27Zm-8.48,14.12h8.12l-3.78-11a.38.38,0,0,0-.18-.31.27.27,0,0,0-.3,0,.41.41,0,0,0-.18.27Z" transform="translate(1674.06 -20.98)"/><path class="cls-1" d="M-1471.08,38.29h.6v6.37h-16.93V44.1a1.85,1.85,0,0,0,1.44-1,3.47,3.47,0,0,0,.67-1.87V24.77a3.47,3.47,0,0,0-.67-1.87,1.83,1.83,0,0,0-1.44-1v-.6h8.61v.6c-.48,0-1,.33-1.4,1a3.45,3.45,0,0,0-.66,1.87V39.26a3.53,3.53,0,0,0,.95,2.78,3.52,3.52,0,0,0,2.45.86,7.32,7.32,0,0,0,4.62-1.37A4,4,0,0,0-1471.08,38.29Z" transform="translate(1674.06 -20.98)"/><path class="cls-1" d="M-1451.72,38.29h.6v6.37H-1468V44.1a1.85,1.85,0,0,0,1.44-1,3.47,3.47,0,0,0,.67-1.87V24.77a3.47,3.47,0,0,0-.67-1.87,1.83,1.83,0,0,0-1.44-1v-.6h8.61v.6c-.49,0-1,.33-1.4,1a3.47,3.47,0,0,0-.67,1.87V39.26a3.53,3.53,0,0,0,1,2.78,3.52,3.52,0,0,0,2.45.86,7.32,7.32,0,0,0,4.62-1.37A4,4,0,0,0-1451.72,38.29Z" transform="translate(1674.06 -20.98)"/><path class="cls-1" d="M-1439.54,23.07a3.12,3.12,0,0,0-2.29.87,2.82,2.82,0,0,0-.88,2.1v6.47a10.36,10.36,0,0,0,4.2-.78q1.77-.78,1.77-1.95h.6v6.41h-.6c0-.74-.59-1.37-1.78-1.91a10.24,10.24,0,0,0-4.19-.8v6.64a2.59,2.59,0,0,0,.83,2,3.35,3.35,0,0,0,2.34.76c2.33,0,4-.5,5.07-1.49a5.14,5.14,0,0,0,1.57-3.92h.6v6.44c0,.49-.23.73-.7.73h-16.22V44.1c.51,0,1-.35,1.43-1a3.53,3.53,0,0,0,.67-1.9V24.84a3.56,3.56,0,0,0-.67-1.91,1.8,1.8,0,0,0-1.43-1v-.6H-1433a.6.6,0,0,1,.5.27,1,1,0,0,1,.2.63v6.31h-.6a5.22,5.22,0,0,0-1.62-3.82Q-1436.14,23.07-1439.54,23.07Z" transform="translate(1674.06 -20.98)"/><path class="cls-1" d="M-1416.94,33.48a16.2,16.2,0,0,0,1.23,2.74,35,35,0,0,0,2.19,3.5,13.94,13.94,0,0,0,3,3.14,5.46,5.46,0,0,0,3.28,1.3v.54h-.77a30.42,30.42,0,0,1-4.82-.3,7.68,7.68,0,0,1-3.24-1.34,8.9,8.9,0,0,1-2.42-2.58,37.44,37.44,0,0,1-2.27-4.53,14.56,14.56,0,0,1-2.74,1.37v3.87a3.39,3.39,0,0,0,.67,1.87,1.79,1.79,0,0,0,1.4,1v.57h-8.61v-.57a1.8,1.8,0,0,0,1.43-1,3.39,3.39,0,0,0,.67-1.87V24.74a3.39,3.39,0,0,0-.67-1.87,1.8,1.8,0,0,0-1.43-1v-.6h11.81a9.78,9.78,0,0,1,1.94.16,6,6,0,0,1,3.22,1.6,4.48,4.48,0,0,1,1.29,3.34,6.38,6.38,0,0,1-1.66,3.86A14.38,14.38,0,0,1-1416.94,33.48Zm-6.58-8.58V35.45A19.7,19.7,0,0,0-1419,31a7.88,7.88,0,0,0,1.66-4.5,3.89,3.89,0,0,0-.92-2.57,2.62,2.62,0,0,0-2-1.11h-1.37a1.72,1.72,0,0,0-1.32.64A2.11,2.11,0,0,0-1423.52,24.9Z" transform="translate(1674.06 -20.98)"/><path class="cls-1" d="M-1397.42,21.3v.6a1.79,1.79,0,0,0-1.45,1,3.42,3.42,0,0,0-.65,1.9V41.23a3.32,3.32,0,0,0,.67,1.88,1.81,1.81,0,0,0,1.43,1v.56h-8.64V44.1a1.81,1.81,0,0,0,1.43-1,3.32,3.32,0,0,0,.67-1.88V24.77a3.39,3.39,0,0,0-.67-1.87,1.8,1.8,0,0,0-1.43-1v-.6Z" transform="translate(1674.06 -20.98)"/><path class="cls-1" d="M-1382,23.27l5.91,17.79a6.74,6.74,0,0,0,1.16,2,2.25,2.25,0,0,0,1.61,1v.56h-9.25V44.1a1.37,1.37,0,0,0,1.27-.9,2.64,2.64,0,0,0,.17-1.87l-.77-2.47h-9l-.77,2.4a2.51,2.51,0,0,0,.15,1.9,1.4,1.4,0,0,0,1.29.94v.56h-6V44.1a2.34,2.34,0,0,0,1.61-1,5.42,5.42,0,0,0,1.13-2L-1387,23.6c-.49-1.11-1.06-1.67-1.7-1.67V21.3h3.8A2.78,2.78,0,0,1-1382,23.27Zm-8.48,14.12h8.11l-3.77-11a.39.39,0,0,0-.19-.31.27.27,0,0,0-.3,0,.41.41,0,0,0-.18.27Z" transform="translate(1674.06 -20.98)"/></svg>